<svg width="449" height="512" viewBox="0 0 449 512" fill="none" xmlns="http://www.w3.org/2000/svg">
<path d="M64 48C64 21.4903 85.4903 0 112 0H331V88C331 114.51 352.49 136 379 136H449V464C449 490.51 427.51 512 401 512H112C85.4903 512 64 490.51 64 464V48Z" fill="#E1E4E6"/>
<path d="M449 136L331.032 0V87C331.032 110.5 328.033 136 380.019 136H449Z" fill="#B0B7BD"/>
<path d="M64 411H385V429C385 435.627 379.627 441 373 441H64V411Z" fill="#CAD0D7"/>
<rect y="233" width="385" height="190" rx="12" fill="#84BD5A"/>
<path d="M117.5 373L96.375 342.625L75.625 373H52.375L84.75 328.5L54 285.5H77L97.125 313.875L116.875 285.5H138.75L108.25 327.75L140.875 373H117.5Z" fill="#FFFBFB"/>
<path d="M228.426 373L228.301 320.5L202.551 363.75H193.426L167.801 321.625V373H148.801V285.5H165.551L198.301 339.875L230.551 285.5H247.176L247.426 373H228.426Z" fill="#FFFBFB"/>
<path d="M268.186 285.5H288.436V356.5H332.311V373H268.186V285.5Z" fill="#FFFBFB"/>
</svg>
