<svg width="449" height="512" viewBox="0 0 449 512" fill="none" xmlns="http://www.w3.org/2000/svg">
<path d="M64 48C64 21.4903 85.4903 0 112 0H331V88C331 114.51 352.49 136 379 136H449V464C449 490.51 427.51 512 401 512H112C85.4903 512 64 490.51 64 464V48Z" fill="#E1E4E6"/>
<path d="M449 136L331.032 0V87C331.032 110.5 328.033 136 380.019 136H449Z" fill="#B0B7BD"/>
<path d="M64 411H385V429C385 435.627 379.627 441 373 441H64V411Z" fill="#CAD0D7"/>
<rect y="233" width="385" height="190" rx="12" fill="#50BEE8"/>
<path d="M102.5 302H74.5V285.5H150.75V302H122.75V373H102.5V302Z" fill="#FFFBFB"/>
<path d="M212.986 373L191.861 342.625L171.111 373H147.861L180.236 328.5L149.486 285.5H172.486L192.611 313.875L212.361 285.5H234.236L203.736 327.75L236.361 373H212.986Z" fill="#FFFBFB"/>
<path d="M261.436 302H233.436V285.5H309.686V302H281.686V373H261.436V302Z" fill="#FFFBFB"/>
</svg>
