<svg width="449" height="512" viewBox="0 0 449 512" fill="none" xmlns="http://www.w3.org/2000/svg">
<path d="M64 48C64 21.4903 85.4903 0 112 0H331V88C331 114.51 352.49 136 379 136H449V464C449 490.51 427.51 512 401 512H112C85.4903 512 64 490.51 64 464V48Z" fill="#E1E4E6"/>
<path d="M449 136L331.032 0V87C331.032 110.5 328.033 136 380.019 136H449Z" fill="#B0B7BD"/>
<path d="M64 411H385V429C385 435.627 379.627 441 373 441H64V411Z" fill="#CAD0D7"/>
<rect y="233" width="385" height="190" rx="12" fill="#84BD5A"/>
<path d="M165.25 356.5V373H88.75V359.875L136.75 302H89.75V285.5H163.375V298.625L115.5 356.5H165.25Z" fill="#FFFBFB"/>
<path d="M178.237 285.5H198.487V373H178.237V285.5Z" fill="#FFFBFB"/>
<path d="M257.128 285.5C264.878 285.5 271.586 286.792 277.253 289.375C283.003 291.958 287.42 295.625 290.503 300.375C293.586 305.125 295.128 310.75 295.128 317.25C295.128 323.667 293.586 329.292 290.503 334.125C287.42 338.875 283.003 342.542 277.253 345.125C271.586 347.625 264.878 348.875 257.128 348.875H239.503V373H219.253V285.5H257.128ZM256.003 332.375C262.086 332.375 266.711 331.083 269.878 328.5C273.045 325.833 274.628 322.083 274.628 317.25C274.628 312.333 273.045 308.583 269.878 306C266.711 303.333 262.086 302 256.003 302H239.503V332.375H256.003Z" fill="#FFFBFB"/>
</svg>
