<svg width="449" height="512" viewBox="0 0 449 512" fill="none" xmlns="http://www.w3.org/2000/svg">
<path d="M64 48C64 21.4903 85.4903 0 112 0H331V88C331 114.51 352.49 136 379 136H449V464C449 490.51 427.51 512 401 512H112C85.4903 512 64 490.51 64 464V48Z" fill="#E1E4E6"/>
<path d="M449 136L331.032 0V87C331.032 110.5 328.033 136 380.019 136H449Z" fill="#B0B7BD"/>
<path d="M64 411H385V429C385 435.627 379.627 441 373 441H64V411Z" fill="#CAD0D7"/>
<rect y="233" width="385" height="190" rx="12" fill="#50BEE8"/>
<path d="M31.1299 290H66.1099C74.4699 290 81.8399 291.613 88.2199 294.84C94.6732 297.993 99.6599 302.467 103.18 308.26C106.773 314.053 108.57 320.8 108.57 328.5C108.57 336.2 106.773 342.947 103.18 348.74C99.6599 354.533 94.6732 359.043 88.2199 362.27C81.8399 365.423 74.4699 367 66.1099 367H31.1299V290ZM65.2299 352.37C72.9299 352.37 79.0532 350.243 83.5999 345.99C88.2199 341.663 90.5299 335.833 90.5299 328.5C90.5299 321.167 88.2199 315.373 83.5999 311.12C79.0532 306.793 72.9299 304.63 65.2299 304.63H48.9499V352.37H65.2299Z" fill="#FFFBFB"/>
<path d="M159.299 368.32C151.305 368.32 144.082 366.597 137.629 363.15C131.249 359.703 126.225 354.973 122.559 348.96C118.965 342.873 117.169 336.053 117.169 328.5C117.169 320.947 118.965 314.163 122.559 308.15C126.225 302.063 131.249 297.297 137.629 293.85C144.082 290.403 151.305 288.68 159.299 288.68C167.292 288.68 174.479 290.403 180.859 293.85C187.239 297.297 192.262 302.063 195.929 308.15C199.595 314.163 201.429 320.947 201.429 328.5C201.429 336.053 199.595 342.873 195.929 348.96C192.262 354.973 187.239 359.703 180.859 363.15C174.479 366.597 167.292 368.32 159.299 368.32ZM159.299 353.14C163.845 353.14 167.952 352.113 171.619 350.06C175.285 347.933 178.145 345 180.199 341.26C182.325 337.52 183.389 333.267 183.389 328.5C183.389 323.733 182.325 319.48 180.199 315.74C178.145 312 175.285 309.103 171.619 307.05C167.952 304.923 163.845 303.86 159.299 303.86C154.752 303.86 150.645 304.923 146.979 307.05C143.312 309.103 140.415 312 138.289 315.74C136.235 319.48 135.209 323.733 135.209 328.5C135.209 333.267 136.235 337.52 138.289 341.26C140.415 345 143.312 347.933 146.979 350.06C150.645 352.113 154.752 353.14 159.299 353.14Z" fill="#FFFBFB"/>
<path d="M251.671 368.32C243.825 368.32 236.711 366.633 230.331 363.26C224.025 359.813 219.038 355.083 215.371 349.07C211.778 342.983 209.981 336.127 209.981 328.5C209.981 320.873 211.778 314.053 215.371 308.04C219.038 301.953 224.025 297.223 230.331 293.85C236.711 290.403 243.861 288.68 251.781 288.68C258.455 288.68 264.468 289.853 269.821 292.2C275.248 294.547 279.795 297.92 283.461 302.32L272.021 312.88C266.815 306.867 260.361 303.86 252.661 303.86C247.895 303.86 243.641 304.923 239.901 307.05C236.161 309.103 233.228 312 231.101 315.74C229.048 319.48 228.021 323.733 228.021 328.5C228.021 333.267 229.048 337.52 231.101 341.26C233.228 345 236.161 347.933 239.901 350.06C243.641 352.113 247.895 353.14 252.661 353.14C260.361 353.14 266.815 350.097 272.021 344.01L283.461 354.57C279.795 359.043 275.248 362.453 269.821 364.8C264.395 367.147 258.345 368.32 251.671 368.32Z" fill="#FFFBFB"/>
<path d="M342.501 367L323.911 340.27L305.651 367H285.191L313.681 327.84L286.621 290H306.861L324.571 314.97L341.951 290H361.201L334.361 327.18L363.071 367H342.501Z" fill="#FFFBFB"/>
</svg>
